<svg width="419" height="449" viewBox="0 0 419 449" fill="none" xmlns="http://www.w3.org/2000/svg">
<path d="M195.733 0.226892C174.633 2.12689 155.133 6.02689 140.533 11.2269C86.2328 30.6269 45.6328 66.9269 20.7328 118.127C-14.0672 189.727 -4.56716 273.427 45.5328 336.027C53.5328 346.127 68.7328 361.027 79.0328 369.027C83.3328 372.327 86.4328 375.227 85.9328 375.427C82.9328 376.427 60.1328 363.127 40.6328 348.927L35.9328 345.627L35.6328 350.027C35.4328 352.427 35.4328 363.627 35.6328 374.927L35.9328 395.427L49.8328 404.527C75.4328 421.527 97.4328 431.127 129.733 439.527C157.633 446.827 180.233 449.127 218.133 448.327C241.033 447.927 247.533 447.427 260.233 445.227C305.333 437.527 343.633 422.527 376.033 399.927L383.733 394.527L383.633 379.827C383.533 371.727 383.233 360.527 382.833 354.927L382.233 344.727L374.233 350.727C360.733 360.927 336.833 375.127 334.533 374.427C333.933 374.227 336.533 371.527 340.333 368.427C367.033 347.127 386.433 322.427 400.633 291.627C423.233 242.827 424.933 182.727 405.233 132.827C388.833 91.3269 359.133 55.4269 321.533 31.7269C308.833 23.7269 300.633 19.7269 284.433 13.7269C268.133 7.62689 255.433 4.22689 240.233 2.12689C229.233 0.526892 204.133 -0.473108 195.733 0.226892ZM240.233 7.12689C271.733 11.6269 303.133 24.3269 329.433 43.1269C351.433 58.9269 369.033 77.8269 383.633 101.127C406.733 138.127 417.533 181.727 413.833 222.727C409.233 272.427 389.433 315.327 355.833 348.127C342.833 360.827 338.133 364.827 328.133 371.827C319.733 377.727 305.833 385.627 303.933 385.627C303.333 385.627 298.333 383.127 293.033 380.127C277.333 371.327 263.233 366.327 242.733 362.527C214.033 357.127 188.033 358.427 155.733 366.627C149.033 368.327 135.433 374.327 124.433 380.427L114.633 385.827L104.633 380.227C92.7328 373.527 86.6328 369.127 73.4328 357.827C37.7328 327.227 13.2328 282.027 6.63284 234.627C4.83284 222.127 4.83284 190.627 6.63284 179.127C13.0328 136.527 31.6328 98.6269 61.2328 67.7269C80.1328 48.1269 100.533 33.5269 123.533 23.2269C146.933 12.7269 167.733 7.62689 196.233 5.22689C204.833 4.52689 229.733 5.62689 240.233 7.12689ZM221.133 367.227C230.333 369.627 240.433 375.327 247.233 382.127C252.933 387.727 257.733 394.927 256.633 396.027C255.333 397.427 231.433 398.827 210.233 398.827C189.833 398.827 163.133 397.327 161.833 396.127C159.233 393.527 174.533 376.927 184.333 371.827C195.833 365.827 209.333 364.127 221.133 367.227ZM176.733 371.027C176.733 371.727 175.033 373.627 173.033 375.227C167.633 379.227 163.933 383.327 159.933 389.527L156.533 394.827L150.333 394.227C141.833 393.227 126.733 389.627 126.733 388.527C126.733 386.327 150.333 376.027 164.433 372.227C174.833 369.327 176.733 369.127 176.733 371.027ZM252.233 372.027C268.033 376.227 292.233 386.727 291.433 388.927C291.033 390.327 287.833 391.127 274.233 393.627C261.633 395.927 263.833 396.927 256.033 386.027C253.733 382.727 249.333 378.127 246.233 375.727C237.633 368.827 238.533 368.327 252.233 372.027ZM142.533 407.827C142.233 409.827 141.533 410.127 136.933 410.427C132.133 410.727 131.633 410.927 131.933 412.927C132.233 414.827 132.933 415.127 137.033 415.427C141.333 415.727 141.833 415.927 141.533 417.927C141.233 419.827 140.633 420.127 136.733 420.127C132.533 420.127 132.233 420.327 131.933 422.827C131.633 425.627 131.633 425.627 137.233 425.627C142.533 425.627 142.833 425.727 142.533 427.827C142.233 429.827 141.533 430.127 136.833 430.427C126.933 431.027 126.733 430.827 126.733 421.327C126.733 416.827 127.033 411.427 127.333 409.327L128.033 405.627H135.433C142.533 405.627 142.833 405.727 142.533 407.827ZM161.333 407.927C163.133 409.527 163.833 410.927 163.433 411.927C162.733 413.727 158.733 414.327 158.733 412.627C158.733 410.827 154.733 409.427 153.133 410.727C150.833 412.627 151.433 413.527 157.233 416.127C161.033 417.727 163.033 419.327 163.733 421.127C165.133 424.827 165.033 425.427 162.233 428.127C160.433 430.027 158.733 430.627 155.433 430.627C149.333 430.627 146.133 427.827 146.633 422.827C146.833 421.127 150.633 421.327 151.333 423.127C152.133 425.227 155.233 426.727 157.133 426.027C160.133 424.927 158.733 422.527 154.033 420.527C148.433 418.227 146.733 416.327 146.733 412.427C146.733 406.027 155.833 403.227 161.333 407.927ZM176.433 406.627C182.533 406.627 182.833 406.727 182.533 408.827C182.333 410.527 181.433 411.227 179.533 411.427L176.733 411.727V421.227C176.733 426.727 176.333 430.727 175.733 430.727C172.333 431.327 172.233 431.027 171.733 421.127L171.233 411.127L168.533 410.827C166.633 410.627 165.733 409.927 165.733 408.727C165.733 406.427 166.833 405.427 168.533 406.127C169.233 406.427 172.833 406.627 176.433 406.627ZM286.533 408.327C286.833 410.427 286.433 410.627 282.933 410.627C279.833 410.627 278.833 411.027 278.433 412.527C278.033 414.127 278.433 414.427 280.833 414.427C287.233 414.227 290.133 422.327 285.633 428.027C283.233 431.127 277.533 431.627 274.533 428.927C270.933 425.727 273.133 422.327 277.133 425.027C280.233 427.027 283.133 425.127 282.533 421.527C282.233 419.327 281.833 419.127 277.933 419.427C272.933 419.827 272.433 419.127 273.533 412.127C274.233 407.427 274.433 407.127 277.733 406.527C283.833 405.427 286.233 405.927 286.533 408.327ZM200.233 408.827C205.233 413.127 205.333 423.427 200.533 428.327C198.933 429.927 196.533 430.827 192.933 431.327C185.333 432.227 184.733 431.327 184.733 419.627C184.733 414.227 185.033 409.127 185.333 408.227C186.333 405.527 196.933 406.027 200.233 408.827ZM228.733 409.327C231.633 413.027 230.733 417.027 226.233 421.627C224.333 423.627 222.733 425.527 222.733 425.827C222.733 426.227 224.433 426.627 226.533 426.827C229.433 427.027 230.233 427.527 230.233 429.127C230.233 430.927 229.533 431.127 222.733 431.127C212.933 431.127 212.633 429.827 220.233 420.927C223.333 417.327 225.633 413.827 225.433 413.227C224.833 411.327 221.933 411.427 219.833 413.527C217.733 415.627 214.733 415.427 214.733 413.127C214.733 412.427 215.633 410.727 216.833 409.227C219.733 405.527 225.733 405.527 228.733 409.327ZM246.833 408.527C248.733 410.027 249.233 411.527 249.533 417.027C250.033 424.727 248.533 429.427 245.033 430.727C241.133 432.227 238.833 431.827 236.233 429.127C234.033 427.027 233.733 425.827 233.733 419.027C233.733 412.427 234.033 410.927 235.933 408.927C238.633 406.127 243.633 405.927 246.833 408.527ZM267.433 409.327C268.733 411.327 269.233 414.027 269.233 419.427C269.233 426.227 269.033 426.927 266.433 429.227C262.833 432.227 259.633 432.227 256.033 429.227C253.433 426.927 253.233 426.327 253.233 418.627C253.233 411.227 253.433 410.227 255.633 408.527C257.033 407.427 259.533 406.627 261.833 406.627C264.933 406.627 266.033 407.127 267.433 409.327Z" fill="#D12B28"/>
<path d="M203.433 20.4269C200.033 20.7269 199.833 20.9269 200.833 22.7269C202.033 25.0269 201.633 45.1269 200.333 47.8269C199.633 49.4269 200.233 49.6269 206.633 49.6269H213.733V45.1269C213.733 40.0269 212.333 39.1269 211.333 43.7269C210.833 46.3269 210.333 46.7269 208.133 46.4269L205.433 46.1269L205.633 34.6269C205.733 28.2269 206.333 22.6269 206.933 21.9269C208.333 20.2269 208.033 20.0269 203.433 20.4269Z" fill="#D12B28"/>
<path d="M188.333 21.5269C187.933 22.0269 188.333 22.6269 188.933 22.8269C189.933 23.2269 190.233 26.8269 190.233 36.4269V49.6269H194.033C197.733 49.6269 198.533 48.8269 196.733 47.0269C195.333 45.6269 193.533 24.4269 194.733 23.2269C195.333 22.6269 195.733 21.8269 195.733 21.4269C195.733 20.3269 188.933 20.4269 188.333 21.5269Z" fill="#D12B28"/>
<path d="M218.133 33.0269C218.133 41.8269 217.733 45.9269 216.733 47.0269C216.033 47.9269 215.633 48.8269 215.833 49.0269C216.233 49.4269 226.633 49.9269 229.333 49.7269C230.333 49.6269 231.333 41.6269 230.233 41.6269C229.933 41.6269 229.133 42.9269 228.633 44.6269C227.833 46.8269 226.933 47.6269 225.233 47.6269C223.933 47.6269 222.633 47.3269 222.333 46.8269C221.333 45.2269 223.433 23.2269 224.533 22.8269C226.733 22.1269 224.633 20.6269 221.433 20.6269H218.233L218.133 33.0269Z" fill="#D12B28"/>
<path d="M177.433 22.2269C177.133 22.6269 177.233 23.6269 177.633 24.5269C178.133 25.4269 178.833 28.2269 179.233 30.7269C179.933 35.2269 179.833 35.3269 177.033 35.9269C173.233 36.6269 172.733 35.9269 172.433 29.3269C172.233 23.7269 172.233 23.6269 169.133 23.6269C165.433 23.6269 164.233 24.5269 166.233 26.0269C167.933 27.3269 171.233 46.6269 170.333 50.2269C169.833 52.2269 170.033 52.6269 171.933 52.6269C175.633 52.6269 177.333 51.1269 175.833 49.2269C175.133 48.4269 174.533 45.5269 174.433 42.9269C174.233 38.2269 174.333 38.1269 177.233 38.1269C180.233 38.1269 180.233 38.1269 180.533 44.3269C180.833 50.4269 180.933 50.6269 183.633 50.6269C187.233 50.6269 187.933 49.8269 186.333 47.2269C184.733 44.6269 182.333 26.4269 183.233 23.6269C183.733 21.9269 183.433 21.6269 180.933 21.6269C179.333 21.6269 177.733 21.9269 177.433 22.2269Z" fill="#D12B28"/>
<path d="M251.033 25.8269C250.433 26.5269 248.733 30.0269 247.233 33.6269C242.833 44.1269 241.533 47.0269 239.833 48.9269C238.533 50.5269 238.533 50.8269 239.733 51.6269C242.433 53.3269 244.033 52.8269 243.433 50.3269C242.533 47.0269 244.933 44.4269 248.133 45.2269C250.133 45.7269 250.733 46.4269 250.733 48.5269C250.733 50.0269 250.233 51.7269 249.533 52.4269C248.633 53.3269 249.033 53.7269 251.533 54.2269C255.133 54.9269 256.433 54.6269 255.733 53.1269C255.533 52.5269 255.033 46.1269 254.733 38.7269C254.233 25.6269 253.433 22.8269 251.033 25.8269ZM250.733 37.9269C250.733 43.0269 250.133 43.9269 247.633 42.6269C245.933 41.7269 245.933 41.4269 247.533 37.6269C249.733 32.4269 250.733 32.5269 250.733 37.9269Z" fill="#D12B28"/>
<path d="M141.433 30.3269C141.033 30.6269 141.133 31.4269 141.633 32.0269C143.233 34.1269 148.733 55.4269 148.133 57.1269C147.433 58.8269 148.233 58.7269 157.233 56.1269C161.533 54.9269 161.733 54.0269 159.433 48.7269C158.333 46.1269 158.333 46.1269 157.933 49.8269C157.733 52.5269 157.033 53.7269 155.533 54.2269C154.433 54.5269 153.233 54.4269 152.833 53.9269C151.533 52.5269 146.533 32.5269 147.133 31.0269C147.533 30.0269 146.833 29.6269 144.833 29.6269C143.333 29.6269 141.733 29.9269 141.433 30.3269Z" fill="#D12B28"/>
<path d="M266.433 30.7269C262.333 33.1269 258.133 47.0269 259.433 53.8269C260.033 56.8269 264.433 59.2269 267.533 58.2269C269.533 57.5269 272.233 52.7269 271.133 51.7269C270.733 51.4269 270.233 51.7269 270.033 52.4269C269.033 55.2269 266.633 56.6269 264.733 55.6269C262.033 54.1269 261.933 51.0269 264.333 42.8269C266.433 36.0269 268.933 31.6269 270.833 31.6269C272.333 31.6269 274.633 34.7269 274.133 36.0269C273.833 36.8269 274.033 37.7269 274.633 38.0269C275.133 38.3269 275.933 37.2269 276.233 35.4269C276.833 33.0269 276.533 31.9269 275.133 30.9269C273.033 29.4269 268.933 29.2269 266.433 30.7269Z" fill="#D12B28"/>
<path d="M126.233 36.6269C123.633 39.5269 124.133 46.4269 127.633 54.1269C130.633 60.7269 132.833 62.6269 137.133 62.6269C143.533 62.6269 145.533 55.2269 141.733 45.5269C138.033 35.7269 130.833 31.6269 126.233 36.6269ZM135.933 43.0269C140.833 52.5269 141.333 61.2269 136.933 60.4269C134.733 60.0269 128.533 47.4269 127.933 42.0269C127.533 38.5269 127.833 37.7269 129.333 37.4269C131.833 36.8269 133.433 38.2269 135.933 43.0269Z" fill="#D12B28"/>
<path d="M280.733 46.6269C276.733 52.7269 272.733 58.1269 271.833 58.6269C270.533 59.3269 270.633 59.6269 272.733 60.4269C275.033 61.3269 275.333 61.1269 275.833 58.4269C276.833 54.1269 277.933 53.3269 281.033 54.7269C284.333 56.2269 284.633 59.8269 281.733 61.7269C279.833 63.0269 280.333 63.4269 289.233 67.4269C297.933 71.3269 298.933 71.6269 301.533 70.4269C304.733 68.8269 309.733 61.8269 311.633 55.8269C313.733 49.6269 312.433 46.7269 305.933 43.3269C301.133 40.7269 300.733 40.6269 300.733 42.4269C300.733 43.5269 298.733 48.8269 296.333 54.2269C292.633 62.7269 291.633 64.1269 289.633 64.1269C287.533 64.1269 287.233 63.7269 287.533 60.6269C287.633 58.7269 288.433 53.9269 289.233 50.1269C291.433 39.4269 291.533 36.2269 289.633 35.8269C288.533 35.6269 285.633 39.1269 280.733 46.6269ZM285.733 47.9269C285.733 52.0269 284.133 53.9269 281.633 52.5269C279.833 51.6269 279.833 51.4269 282.033 48.1269C284.833 43.7269 285.733 43.7269 285.733 47.9269ZM307.533 46.8269C308.233 47.5269 308.733 49.2269 308.733 50.7269C308.733 54.0269 304.533 63.4269 301.733 66.4269C299.433 68.9269 295.933 69.3269 295.133 67.2269C294.533 65.7269 304.233 45.6269 305.533 45.6269C305.933 45.6269 306.833 46.1269 307.533 46.8269Z" fill="#D12B28"/>
<path d="M111.033 42.9269C104.633 46.1269 103.733 47.7269 106.133 50.8269C107.833 53.1269 109.033 53.1269 108.233 50.7269C107.633 48.6269 108.533 45.6269 109.833 45.6269C111.133 45.6269 120.833 65.5269 120.533 67.4269C120.133 69.7269 121.333 70.0269 124.733 68.6269C128.033 67.2269 128.533 66.1269 126.233 65.3269C124.433 64.5269 114.433 44.8269 115.333 43.5269C115.733 42.9269 116.833 43.1269 118.433 44.1269C119.833 45.0269 121.133 45.6269 121.333 45.3269C122.133 44.5269 119.433 39.6269 118.333 39.6269C117.733 39.6269 114.433 41.1269 111.033 42.9269Z" fill="#D12B28"/>
<path d="M98.2328 50.1269C96.6328 51.4269 95.7328 52.5269 96.4328 52.6269C97.9328 52.6269 108.733 72.0269 108.733 74.6269C108.733 76.9269 108.833 77.0269 112.233 75.4269C114.533 74.4269 115.733 71.6269 113.833 71.6269C112.733 71.6269 102.033 52.5269 101.533 49.7269C101.233 47.6269 101.233 47.6269 98.2328 50.1269Z" fill="#D12B28"/>
<path d="M318.733 53.4269C318.733 55.7269 309.333 71.5269 306.533 73.9269C305.433 74.9269 304.633 75.8269 304.833 75.9269C305.033 76.1269 307.633 77.7269 310.533 79.4269L315.733 82.6269L317.733 79.4269C319.933 75.7269 319.533 74.5269 316.933 76.9269C314.633 79.0269 313.333 79.0269 311.733 77.2269C310.833 76.0269 311.133 74.8269 313.233 71.2269C316.233 66.1269 317.233 65.6269 318.333 68.8269L319.033 71.0269L320.833 68.7269C323.433 65.5269 323.433 63.2269 320.733 64.8269C319.733 65.5269 318.533 65.7269 318.133 65.3269C317.233 64.4269 320.833 57.6269 322.533 56.9269C324.733 56.0269 326.733 58.6269 326.133 61.5269L325.633 64.1269L327.633 61.7269C328.833 60.4269 329.733 59.0269 329.733 58.5269C329.733 57.5269 321.333 51.6269 319.833 51.6269C319.233 51.6269 318.733 52.4269 318.733 53.4269Z" fill="#D12B28"/>
<path d="M85.0328 59.2269C80.5328 61.8269 79.8328 63.0269 82.0328 64.3269C83.3328 65.1269 92.1328 76.3269 94.8328 80.6269C96.6328 83.5269 96.2328 85.6269 93.9328 85.6269C93.0328 85.6269 87.5328 82.0269 81.8328 77.6269C67.6328 66.8269 66.8328 67.6269 75.0328 84.4269C78.4328 91.4269 81.3328 97.3269 81.4328 97.5269C81.6328 97.7269 82.6328 97.1269 83.7328 96.1269C85.7328 94.3269 85.7328 94.3269 83.5328 93.2269C80.7328 91.8269 80.0328 88.4269 82.2328 86.6269C84.2328 84.9269 88.4328 86.9269 88.9328 89.8269C89.2328 91.4269 90.2328 91.0269 96.0328 86.5269C102.933 81.2269 104.033 79.6269 101.033 79.6269C100.033 79.6269 97.9328 78.0269 96.4328 76.0269L93.5328 72.5269L96.1328 70.1269C99.6328 66.9269 99.5328 63.2269 95.8328 59.5269C92.2328 55.9269 90.4328 55.9269 85.0328 59.2269ZM92.6328 61.8269C95.4328 64.8269 96.2328 67.6269 94.6328 69.2269C92.9328 70.8269 91.8328 70.2269 88.8328 65.8269C85.1328 60.5269 88.3328 57.1269 92.6328 61.8269ZM80.1328 81.5269C81.9328 83.5269 81.7328 86.6269 79.8328 86.6269C78.9328 86.6269 74.7328 79.6269 74.7328 78.1269C74.7328 77.2269 78.1328 79.3269 80.1328 81.5269Z" fill="#D12B28"/>
<path d="M334.333 64.0269C333.533 67.3269 320.933 82.6269 319.033 82.6269C317.633 82.6269 317.633 82.9269 319.233 84.6269C321.633 87.3269 322.333 87.1269 323.033 83.8269C323.333 82.3269 325.633 78.8269 328.133 76.1269C332.533 71.3269 332.733 71.2269 332.033 74.1269C331.733 75.7269 330.333 79.5269 329.033 82.3269C327.833 85.2269 327.133 87.6269 327.633 87.6269C328.133 87.6269 331.133 85.6269 334.333 83.1269C337.433 80.6269 340.433 78.6269 340.833 78.6269C342.233 78.6269 337.733 85.3269 333.633 89.4269C329.833 93.2269 329.833 93.4269 331.733 95.1269C333.633 96.8269 335.733 96.4269 335.733 94.4269C335.733 92.9269 346.633 78.8269 349.733 76.4269C352.133 74.5269 352.133 74.4269 350.333 73.0269C347.433 70.9269 346.133 71.2269 340.533 75.6269C337.733 77.9269 335.233 79.4269 334.933 79.2269C334.733 78.9269 335.633 75.7269 337.133 72.1269C340.333 64.1269 340.333 64.2269 337.333 62.8269C335.233 61.9269 334.833 62.0269 334.333 64.0269Z" fill="#D12B28"/>
<path d="M190.433 76.3269C190.033 76.6269 189.733 78.2269 189.733 79.8269C189.733 82.1269 189.333 82.6269 187.333 82.6269C184.533 82.6269 183.733 84.2269 183.733 89.7269C183.733 95.6269 185.133 97.6269 189.233 97.6269H192.733V86.6269C192.733 76.5269 192.233 74.4269 190.433 76.3269ZM189.733 90.0269C189.733 95.8269 189.133 97.1269 187.033 95.5269C185.433 94.1269 185.333 86.4269 186.933 84.8269C188.833 82.9269 189.733 84.5269 189.733 90.0269Z" fill="#D12B28"/>
<path d="M124.133 79.1269C122.233 82.1269 123.033 85.1269 126.333 87.3269C129.833 89.6269 131.033 92.2269 129.733 94.6269C128.233 97.3269 126.833 97.1269 125.633 93.9269C125.033 92.2269 124.333 91.6269 123.633 92.3269C122.333 93.6269 123.533 96.4269 125.933 97.7269C128.933 99.3269 132.733 96.4269 132.733 92.5269C132.733 90.2269 131.833 88.6269 129.233 86.3269C125.333 82.9269 124.433 78.6269 127.633 78.6269C128.633 78.6269 129.833 79.4269 130.133 80.3269C130.633 81.5269 131.133 81.6269 131.933 80.8269C132.733 80.0269 132.733 79.3269 131.733 78.1269C129.833 75.8269 126.033 76.3269 124.133 79.1269Z" fill="#D12B28"/>
<path d="M236.933 77.8269C234.633 80.1269 235.533 84.4269 239.233 87.7269C241.133 89.5269 242.733 91.8269 242.733 92.8269C242.733 95.4269 239.733 96.3269 238.233 94.3269C236.933 92.4269 234.733 92.0269 234.733 93.6269C234.733 95.1269 238.533 98.6269 240.033 98.6269C242.233 98.6269 244.733 95.2269 244.733 92.2269C244.733 90.3269 243.633 88.5269 241.233 86.3269C239.333 84.6269 237.733 82.4269 237.733 81.4269C237.733 78.7269 240.533 78.0269 242.233 80.2269C243.833 82.5269 245.633 81.2269 244.133 78.8269C242.733 76.7269 238.633 76.1269 236.933 77.8269Z" fill="#D12B28"/>
<path d="M259.733 87.1269C259.733 93.4269 260.133 97.6269 260.733 97.6269C261.333 97.6269 261.733 95.0269 261.733 91.7269C261.733 87.9269 262.233 85.4269 263.133 84.7269C265.233 82.9269 266.233 85.1269 266.233 91.5269C266.233 95.0269 266.633 97.1269 267.533 97.4269C268.533 97.7269 268.733 96.1269 268.533 90.4269L268.233 83.1269L265.033 82.8269C262.133 82.5269 261.733 82.1269 261.733 79.5269C261.733 77.9269 261.333 76.6269 260.733 76.6269C260.133 76.6269 259.733 80.8269 259.733 87.1269Z" fill="#D12B28"/>
<path d="M296.733 87.7269C296.733 94.8269 297.133 98.5269 297.733 98.1269C298.333 97.8269 298.733 92.9269 298.733 87.0269C298.733 80.7269 298.333 76.6269 297.733 76.6269C297.133 76.6269 296.733 81.0269 296.733 87.7269Z" fill="#D12B28"/>
<path d="M353.733 79.0269C353.733 79.8269 352.333 83.3269 350.733 86.8269C347.533 93.6269 341.633 100.327 339.833 99.2269C337.733 97.9269 338.733 101.327 341.033 103.427C343.833 106.127 344.733 106.227 344.733 103.827C344.733 101.127 351.533 95.1269 358.433 91.7269C361.833 90.0269 365.133 88.6269 365.833 88.6269C366.533 88.6269 366.333 87.8269 365.233 86.6269C363.033 84.1269 362.133 84.1269 361.533 86.4269C361.033 88.3269 354.233 92.4269 353.233 91.4269C352.333 90.6269 356.433 82.9269 357.933 82.3269C358.933 82.0269 358.733 81.3269 357.333 79.7269C355.133 77.3269 353.733 77.0269 353.733 79.0269Z" fill="#D12B28"/>
<path d="M58.7328 82.3269C55.3328 84.6269 54.7328 85.6269 54.7328 89.2269C54.7328 93.0269 58.3328 98.0269 64.3328 102.327C69.7328 106.127 73.4328 106.527 76.5328 103.627C79.0328 101.227 79.2328 98.9269 77.2328 96.2269C75.3328 93.7269 74.2328 94.8269 75.7328 97.6269C76.7328 99.4269 76.6328 100.127 75.4328 101.427C74.1328 102.727 73.4328 102.727 70.7328 101.627C67.0328 100.127 57.7328 90.1269 57.7328 87.6269C57.7328 84.7269 60.2328 83.3269 62.7328 84.6269C65.8328 86.2269 66.1328 85.3269 63.4328 82.8269C61.2328 80.7269 61.0328 80.7269 58.7328 82.3269Z" fill="#D12B28"/>
<path d="M197.733 83.1269C196.133 85.0269 197.233 86.3269 199.033 84.7269C200.133 83.8269 200.733 83.9269 201.733 85.1269C203.233 86.9269 202.433 88.1269 198.533 90.0269C196.933 90.8269 196.233 92.0269 196.233 94.1269C196.233 96.9269 196.433 97.1269 200.233 97.1269H204.233V90.3269C204.233 85.4269 203.833 83.3269 202.733 82.6269C200.633 81.2269 199.133 81.4269 197.733 83.1269ZM202.433 92.2269C202.733 93.0269 202.333 94.4269 201.533 95.2269C200.233 96.5269 199.933 96.5269 198.733 95.2269C197.733 93.9269 197.733 93.3269 198.733 92.1269C200.333 90.2269 201.633 90.2269 202.433 92.2269Z" fill="#D12B28"/>
<path d="M208.933 83.0269C207.833 84.5269 208.633 97.6269 209.833 97.6269C210.333 97.6269 210.733 95.1269 210.733 92.1269C210.733 87.9269 211.233 86.2269 212.833 84.8269L214.833 82.9269L212.333 82.4269C210.933 82.1269 209.433 82.4269 208.933 83.0269Z" fill="#D12B28"/>
<path d="M217.633 82.3269C217.433 83.3269 217.433 83.1269 219.333 91.9269C220.633 98.3269 220.633 99.1269 219.133 100.827C217.233 102.827 217.633 104.027 219.933 103.127C221.833 102.427 227.233 82.3269 225.433 82.9269C224.733 83.1269 223.833 84.9269 223.433 86.9269C222.233 91.7269 220.933 91.6269 220.133 86.6269C219.533 83.0269 217.933 80.2269 217.633 82.3269Z" fill="#D12B28"/>
<path d="M136.833 84.5269C136.233 85.6269 135.733 88.5269 135.733 90.9269C135.733 96.4269 138.333 99.4269 141.633 97.6269C142.833 97.0269 143.733 95.9269 143.733 95.1269C143.733 93.3269 142.033 93.1269 141.533 94.8269C140.833 96.7269 137.733 94.9269 137.733 92.6269C137.733 91.0269 138.433 90.6269 140.833 90.6269C143.733 90.6269 143.833 90.4269 143.533 86.8269C143.233 83.6269 142.833 83.1269 140.533 82.8269C138.733 82.6269 137.533 83.1269 136.833 84.5269ZM141.633 85.5269C142.433 86.9269 142.333 87.7269 141.333 88.5269C139.633 89.9269 137.433 87.6269 138.333 85.2269C139.133 83.1269 140.433 83.2269 141.633 85.5269Z" fill="#D12B28"/>
<path d="M149.033 83.8269C145.533 88.2269 147.633 98.5269 151.933 98.6269C153.233 98.6269 155.733 95.4269 155.733 93.8269C155.633 92.3269 155.533 92.3269 154.233 94.0269C151.733 97.2269 149.733 95.3269 149.733 89.6269C149.733 84.5269 150.933 83.2269 153.533 85.8269C155.033 87.3269 155.933 86.4269 155.133 84.2269C154.433 82.3269 150.433 82.1269 149.033 83.8269Z" fill="#D12B28"/>
<path d="M159.933 85.1269C157.433 90.5269 159.233 97.6269 163.033 97.6269C166.533 97.6269 167.733 95.7269 167.733 90.5269C167.733 84.0269 167.033 82.6269 163.833 82.6269C161.833 82.6269 160.733 83.3269 159.933 85.1269ZM165.533 91.1269C165.333 94.0269 164.733 95.2269 163.533 95.4269C162.033 95.7269 161.733 94.9269 161.733 90.3269C161.733 87.4269 162.033 84.6269 162.433 84.2269C163.833 82.8269 165.833 87.2269 165.533 91.1269Z" fill="#D12B28"/>
<path d="M171.733 90.0269C171.733 99.4269 173.533 100.127 173.933 90.8269C174.133 85.6269 174.533 84.1269 175.733 84.1269C176.933 84.1269 177.333 85.7269 177.533 90.9269C177.733 95.7269 178.233 97.6269 179.033 97.3269C179.833 97.1269 180.233 94.5269 180.233 90.0269V83.1269L176.033 82.8269L171.733 82.5269V90.0269Z" fill="#D12B28"/>
<path d="M248.733 84.5269C248.233 85.6269 247.733 88.1269 247.733 90.1269C247.733 95.0269 249.333 97.6269 252.233 97.6269C254.833 97.6269 257.533 94.2269 255.733 93.1269C255.133 92.8269 254.433 93.2269 254.133 94.0269C253.333 96.1269 251.133 96.0269 250.333 94.0269C248.333 88.9269 251.233 81.1269 253.533 85.3269C254.733 87.4269 256.233 86.4269 255.433 84.1269C254.533 81.9269 250.033 82.2269 248.733 84.5269Z" fill="#D12B28"/>
<path d="M274.033 83.3269C273.133 83.6269 272.733 86.0269 272.733 90.1269C272.733 95.4269 273.033 96.7269 274.633 97.6269C277.133 98.9269 277.333 98.9269 279.133 97.0269C280.733 95.4269 281.333 87.4269 280.133 84.2269C279.533 82.7269 276.533 82.2269 274.033 83.3269ZM278.533 90.5269C278.333 93.9269 277.833 95.2269 276.533 95.4269C275.033 95.7269 274.733 94.9269 274.733 90.3269C274.733 84.3269 275.333 83.0269 277.433 84.8269C278.333 85.5269 278.733 87.5269 278.533 90.5269Z" fill="#D12B28"/>
<path d="M285.533 84.5269C284.633 85.8269 284.333 88.2269 284.733 91.8269C285.233 96.8269 285.433 97.1269 288.133 97.4269C289.733 97.6269 291.333 97.2269 291.833 96.4269C292.833 94.9269 293.033 86.5269 292.133 84.2269C291.333 82.0269 287.133 82.2269 285.533 84.5269ZM290.233 90.1269C290.233 94.0269 289.833 95.1269 288.533 95.4269C287.033 95.7269 286.733 94.9269 286.733 90.1269C286.733 85.3269 287.033 84.5269 288.533 84.8269C289.833 85.1269 290.233 86.2269 290.233 90.1269Z" fill="#D12B28"/>
<path d="M104.533 108.227C96.1328 110.227 90.9328 113.127 84.6328 119.627C80.4328 123.927 78.4328 127.027 76.5328 132.227C75.1328 136.027 74.1328 139.327 74.3328 139.527C75.0328 140.227 83.4328 136.327 90.4328 132.027C94.3328 129.627 99.7328 125.227 102.433 122.227C107.733 116.427 112.233 108.727 111.033 107.627C110.633 107.227 107.633 107.527 104.533 108.227Z" fill="#D12B28"/>
<path d="M305.733 108.027C305.733 109.027 310.233 116.227 313.033 119.927C316.933 125.027 326.033 131.827 334.533 136.127C342.533 140.127 343.733 140.327 343.733 137.827C343.733 135.327 338.433 124.627 335.333 120.927C329.733 114.327 316.633 107.627 309.033 107.627C307.233 107.627 305.733 107.827 305.733 108.027Z" fill="#D12B28"/>
<path d="M234.733 116.727C226.633 117.427 217.933 119.827 207.733 124.027C198.233 128.027 198.433 128.027 192.633 124.827C189.633 123.127 182.533 120.627 176.733 119.127C167.733 116.827 164.633 116.527 154.833 116.827C143.933 117.127 143.433 117.227 141.333 119.927C139.933 121.627 138.233 122.627 136.433 122.627H133.733V170.627V218.627H140.133C158.033 218.627 183.933 223.527 190.833 228.227C195.033 231.127 202.733 231.527 204.833 229.027C208.533 224.527 234.333 219.327 257.733 218.327L263.233 218.127L263.533 198.727C263.633 188.027 263.433 178.927 263.033 178.527C262.533 178.027 259.933 179.327 257.233 181.427L252.233 185.227L251.933 195.227L251.633 205.127L243.733 205.327C230.633 205.527 221.133 208.027 207.333 214.827C203.933 216.527 201.133 217.427 200.633 216.927C200.133 216.427 199.833 197.227 199.933 173.527L200.233 131.127L206.733 127.827C215.733 123.327 232.333 119.327 241.833 119.327C245.933 119.227 249.933 119.627 250.533 120.027C251.433 120.527 251.733 126.727 251.733 142.727C251.733 154.727 252.033 164.627 252.533 164.627C252.933 164.627 255.533 163.127 258.233 161.327L263.233 158.127L263.533 140.827C263.733 127.527 263.533 123.527 262.533 123.227C261.833 122.927 260.033 122.527 258.533 122.227C256.933 121.827 255.733 120.927 255.733 120.127C255.733 119.427 255.233 118.427 254.633 118.027C252.633 116.827 242.233 116.127 234.733 116.727ZM171.733 121.327C182.133 123.627 194.333 128.527 195.933 131.027C196.833 132.327 197.033 217.627 196.233 217.627C195.933 217.627 191.533 215.627 186.433 213.227C174.933 207.727 165.733 205.427 154.233 205.227L145.233 205.127V162.627V120.127L150.233 119.527C156.233 118.727 162.933 119.327 171.733 121.327Z" fill="#D12B28"/>
<path d="M175.333 133.327C174.233 134.427 174.733 135.627 176.233 135.627C177.033 135.627 177.733 135.227 177.733 134.727C177.733 133.427 176.133 132.527 175.333 133.327Z" fill="#D12B28"/>
<path d="M170.233 148.627C171.233 149.727 172.433 150.627 172.933 150.627C173.333 150.627 173.733 149.727 173.733 148.627C173.733 147.127 173.033 146.627 171.033 146.627C168.533 146.627 168.433 146.627 170.233 148.627Z" fill="#D12B28"/>
<path d="M179.733 150.627C179.733 151.427 182.133 152.627 183.833 152.627C184.433 152.627 184.633 152.227 184.333 151.727C183.533 150.527 179.733 149.627 179.733 150.627Z" fill="#D12B28"/>
<path d="M170.733 162.627C170.733 163.127 171.933 163.627 173.533 163.627C175.633 163.627 175.933 163.427 174.733 162.627C172.733 161.327 170.733 161.327 170.733 162.627Z" fill="#D12B28"/>
<path d="M173.733 167.627C173.733 168.727 174.433 169.627 175.233 169.627C176.033 169.627 176.733 168.727 176.733 167.627C176.733 166.527 176.033 165.627 175.233 165.627C174.433 165.627 173.733 166.527 173.733 167.627Z" fill="#D12B28"/>
<path d="M175.033 179.127C175.933 181.027 176.733 181.527 178.233 181.127C179.333 180.927 180.833 180.627 181.533 180.627C183.833 180.627 182.733 178.827 179.633 177.727C174.533 175.927 173.733 176.227 175.033 179.127Z" fill="#D12B28"/>
<path d="M176.733 187.127C176.733 187.927 177.233 188.627 177.733 188.627C178.333 188.627 178.733 187.927 178.733 187.127C178.733 186.327 178.333 185.627 177.733 185.627C177.233 185.627 176.733 186.327 176.733 187.127Z" fill="#D12B28"/>
<path d="M168.933 192.027C167.733 194.827 168.833 195.627 173.833 195.627C175.433 195.627 176.733 196.127 176.733 196.827C176.733 197.727 177.033 197.727 177.833 196.927C178.433 196.327 178.733 194.827 178.533 193.527C178.333 191.627 177.733 191.227 175.533 191.427C174.133 191.627 172.633 191.227 172.233 190.727C171.233 189.027 170.133 189.427 168.933 192.027Z" fill="#D12B28"/>
<path d="M67.4328 123.127C57.5328 130.427 53.0328 140.627 54.1328 153.127C54.4328 156.927 55.2328 161.827 55.8328 163.927C56.7328 167.427 57.1328 167.727 59.5328 167.127C61.0328 166.827 67.8328 163.827 74.5328 160.427C84.2328 155.727 88.4328 153.027 93.8328 147.927C97.6328 144.327 100.733 140.927 100.733 140.327C100.733 139.727 98.2328 139.527 93.7328 139.927C84.8328 140.627 76.1328 144.727 68.8328 151.627C65.8328 154.427 63.2328 156.527 63.0328 156.227C62.8328 156.027 63.4328 154.127 64.5328 151.927C67.3328 146.527 71.4328 132.227 72.3328 125.327C72.6328 122.227 72.8328 119.627 72.6328 119.627C72.4328 119.627 70.1328 121.227 67.4328 123.127Z" fill="#D12B28"/>
<path d="M346.033 125.227C346.733 132.027 349.533 142.827 352.633 150.327C353.733 153.227 354.433 155.627 354.033 155.627C353.733 155.627 351.433 153.627 349.133 151.227C346.833 148.727 343.033 145.827 340.833 144.727C332.333 140.327 317.733 138.027 317.733 141.027C317.733 142.827 326.333 150.827 332.933 154.927C339.333 159.027 357.733 167.627 359.933 167.627C362.133 167.627 364.133 159.127 364.133 149.627C364.133 143.627 363.633 141.027 361.533 136.427C359.033 130.927 351.833 122.827 347.433 120.527C345.533 119.427 345.533 119.627 346.033 125.227Z" fill="#D12B28"/>
<path d="M218.133 137.127C217.133 137.927 215.133 138.627 213.733 138.627C211.233 138.627 208.733 140.227 208.733 141.827C208.733 143.427 214.633 142.627 215.633 140.827C216.533 139.327 216.833 139.327 217.733 140.627C218.633 142.027 219.133 145.627 218.833 148.327C218.533 150.127 222.433 149.927 223.133 148.127C223.433 147.327 223.233 146.627 222.733 146.627C222.133 146.627 221.733 145.927 221.733 145.127C221.733 144.327 222.233 143.627 222.933 143.627C223.533 143.627 223.233 143.027 222.233 142.227C220.633 141.027 220.533 140.627 221.633 139.327C222.833 137.727 222.433 135.627 220.833 135.627C220.433 135.627 219.233 136.327 218.133 137.127Z" fill="#D12B28"/>
<path d="M286.133 145.727C273.433 153.827 267.733 157.727 267.733 158.527C267.733 159.627 274.033 167.627 274.933 167.627C275.333 167.627 278.333 166.027 281.433 164.027C298.933 153.027 300.433 151.627 299.333 147.227C298.833 145.127 295.033 142.627 292.333 142.627C291.733 142.627 288.933 144.027 286.133 145.727Z" fill="#D12B28"/>
<path d="M369.933 158.827C369.233 163.927 368.233 171.227 367.633 175.127C367.133 178.927 366.933 185.027 367.233 188.527C367.733 193.027 367.633 194.627 366.833 194.227C366.233 193.827 365.733 193.027 365.733 192.527C365.733 189.527 359.733 179.927 355.033 175.527C350.033 170.827 341.733 166.127 339.733 166.827C338.033 167.427 343.733 181.727 347.733 186.927C352.733 193.627 367.433 206.927 369.033 206.327C372.233 205.027 379.033 190.827 380.733 181.827C382.333 172.927 378.733 158.627 373.133 151.827L371.133 149.427L369.933 158.827Z" fill="#D12B28"/>
<path d="M43.2328 154.327C39.9328 159.127 36.7328 169.527 36.7328 175.227C36.7328 177.727 37.4328 182.627 38.3328 186.127C40.1328 193.027 47.3328 205.927 49.7328 206.427C50.5328 206.527 55.7328 202.227 61.3328 196.927C69.4328 189.027 72.0328 185.827 74.6328 180.127C77.7328 173.527 79.6328 166.627 78.4328 166.627C78.0328 166.627 75.2328 167.827 72.0328 169.327C64.0328 173.127 57.8328 179.627 54.3328 187.927C52.7328 191.727 51.1328 194.427 50.7328 193.927C50.2328 193.527 50.4328 190.327 50.9328 186.927C51.8328 181.827 51.6328 178.727 49.8328 168.927C48.7328 162.327 47.7328 155.827 47.7328 154.427C47.7328 150.227 46.0328 150.227 43.2328 154.327Z" fill="#D12B28"/>
<path d="M215.533 157.827C216.433 158.727 217.033 158.727 217.933 157.827C218.833 156.927 218.633 156.627 216.733 156.627C214.833 156.627 214.633 156.927 215.533 157.827Z" fill="#D12B28"/>
<path d="M209.733 159.127C209.033 160.027 208.733 161.027 209.133 161.327C209.933 162.227 212.933 160.427 213.533 158.827C214.033 157.127 211.233 157.327 209.733 159.127Z" fill="#D12B28"/>
<path d="M256.833 166.827C244.933 174.427 244.533 174.627 241.533 174.627C239.533 174.627 238.133 175.527 236.533 178.027C235.233 179.927 232.133 184.127 229.533 187.527C226.933 190.927 225.133 193.627 225.633 193.627C226.233 193.627 226.833 193.227 227.233 192.627C227.833 191.727 233.933 189.627 242.433 187.627C244.833 187.027 247.933 185.327 249.433 183.727C251.033 182.127 256.433 178.027 261.533 174.627C266.533 171.227 270.733 168.227 270.733 168.027C270.733 166.427 267.433 161.627 266.433 161.627C265.733 161.627 261.433 164.027 256.833 166.827ZM243.433 180.227C244.233 182.327 241.933 184.427 237.733 185.227L234.233 185.927L237.633 182.227C241.533 178.227 242.533 177.827 243.433 180.227Z" fill="#D12B28"/>
<path d="M218.733 175.527C216.433 176.127 216.433 176.327 218.133 176.927C219.433 177.427 220.633 177.127 221.633 176.127C223.233 174.527 222.733 174.427 218.733 175.527Z" fill="#D12B28"/>
<path d="M210.833 177.027C210.033 178.027 209.933 178.627 210.733 179.127C211.233 179.427 212.033 179.027 212.333 178.127C213.233 175.927 212.233 175.227 210.833 177.027Z" fill="#D12B28"/>
<path d="M213.733 190.027C211.233 191.327 209.133 193.127 208.933 194.027C208.533 195.727 210.233 196.227 211.233 194.627C211.533 194.127 212.433 193.927 213.233 194.327C214.033 194.627 214.733 194.327 214.733 193.727C214.733 193.127 216.133 191.927 217.733 191.127C219.433 190.227 220.533 189.127 220.233 188.627C219.333 187.227 218.733 187.327 213.733 190.027Z" fill="#D12B28"/>
<path d="M30.3328 195.727C29.2328 201.427 29.7328 213.227 31.3328 218.727C32.2328 221.727 34.2328 226.227 35.9328 228.827C39.2328 234.127 50.2328 244.827 54.7328 247.127L57.7328 248.627L61.8328 239.927C68.5328 225.527 70.8328 218.027 71.4328 207.827C71.8328 201.827 71.6328 198.627 71.0328 198.627C70.4328 198.627 67.8328 200.727 65.3328 203.327C58.8328 209.927 54.6328 218.927 53.8328 227.627C53.4328 231.427 52.8328 234.827 52.5328 235.127C52.1328 235.527 51.3328 233.827 50.7328 231.427C47.5328 219.727 43.5328 210.127 38.1328 201.727C34.8328 196.727 31.9328 192.627 31.6328 192.627C31.2328 192.627 30.7328 194.027 30.3328 195.727Z" fill="#D12B28"/>
<path d="M381.433 199.327C374.933 209.027 372.233 214.927 369.833 224.427C367.133 235.427 365.833 237.627 365.733 231.427C365.733 221.727 358.933 207.327 351.533 201.127C346.733 197.127 346.333 197.627 347.033 207.827C347.733 218.127 350.133 226.027 356.633 239.927L360.833 248.627L363.833 247.127C367.933 244.927 378.833 234.027 382.133 228.727C386.533 221.827 388.733 214.127 388.733 206.127C388.733 198.227 387.933 192.627 386.733 192.627C386.333 192.627 383.933 195.627 381.433 199.327Z" fill="#D12B28"/>
<path d="M341.933 235.227C338.133 246.127 337.433 251.327 338.033 264.527C338.933 281.127 339.533 284.627 341.733 284.627C345.033 284.627 358.333 279.527 364.233 275.927C371.133 271.727 377.533 265.127 381.133 258.627C383.833 253.727 386.733 243.827 386.733 239.827C386.733 237.527 386.733 237.527 382.133 240.827C374.633 246.127 362.833 257.527 356.533 265.527C353.333 269.527 350.733 273.327 350.733 273.727C350.733 274.227 350.033 274.627 349.233 274.627C347.433 274.627 347.333 275.127 349.733 268.327C353.333 258.027 351.933 244.727 345.833 232.827L344.033 229.427L341.933 235.227Z" fill="#D12B28"/>
<path d="M71.6328 235.327C66.3328 247.527 65.3328 262.127 69.1328 269.427C70.0328 271.227 70.7328 273.527 70.5328 274.427C70.3328 275.527 68.5328 273.727 65.1328 269.127C58.6328 260.227 50.5328 251.927 39.8328 243.227L31.4328 236.327L32.0328 242.627C33.2328 256.227 43.6328 270.827 57.2328 277.827C63.9328 281.327 77.1328 285.527 78.1328 284.527C78.4328 284.327 79.1328 277.427 79.8328 269.427C80.8328 258.227 80.8328 252.927 79.9328 247.427C78.9328 240.827 75.4328 230.627 74.1328 230.627C73.8328 230.627 72.7328 232.727 71.6328 235.327Z" fill="#D12B28"/>
<path d="M203.633 243.927C191.633 254.827 187.233 263.927 187.333 277.627C187.333 284.927 187.733 286.927 190.133 291.627C193.733 298.627 201.733 306.327 206.333 307.227C211.533 308.227 214.433 307.027 220.233 301.527C233.433 289.027 234.733 270.527 223.533 253.827C220.233 249.027 210.733 239.627 209.233 239.627C208.733 239.627 206.133 241.627 203.633 243.927Z" fill="#D12B28"/>
<path d="M261.233 246.027C254.833 248.027 249.033 252.427 245.233 258.227C241.733 263.427 241.333 265.027 238.733 281.327C237.333 290.027 233.133 299.127 228.333 304.027C225.133 307.127 224.933 307.727 226.333 308.327C229.333 309.427 242.533 307.027 248.133 304.227C255.233 300.727 261.133 294.627 264.933 286.627C267.933 280.627 268.133 279.127 268.833 265.627C269.133 257.627 270.033 249.827 270.633 248.327C271.233 246.727 271.733 245.327 271.733 245.027C271.733 244.227 265.133 244.827 261.233 246.027Z" fill="#D12B28"/>
<path d="M147.233 247.327C149.033 251.727 149.733 256.927 149.733 267.327C149.733 277.127 150.033 279.427 152.333 285.127C157.733 298.727 172.633 308.527 187.933 308.627C192.733 308.627 193.333 307.527 190.033 304.527C183.333 298.327 180.033 290.027 178.733 276.327C177.233 260.427 172.933 253.427 161.333 248.027C154.933 245.027 146.133 244.627 147.233 247.327Z" fill="#D12B28"/>
<path d="M113.733 257.327C113.733 257.827 114.133 258.627 114.633 259.127C115.133 259.727 117.433 265.927 119.733 272.927C124.833 288.527 127.433 293.227 133.733 298.927C139.533 304.127 149.033 307.627 157.433 307.627H163.033L159.333 304.727C152.233 299.027 147.633 292.027 144.233 281.727C140.733 271.027 135.333 264.027 127.433 260.027C122.433 257.427 113.733 255.727 113.733 257.327Z" fill="#D12B28"/>
<path d="M297.233 257.527C293.133 258.527 290.033 260.327 284.933 264.327C280.133 268.227 278.133 271.727 273.733 283.627C270.433 292.727 265.233 300.327 259.333 304.727L255.333 307.627L261.833 307.527C274.733 307.427 287.033 299.927 292.733 288.627C294.333 285.327 296.833 279.027 298.133 274.427C299.533 269.827 301.333 264.127 302.133 261.727C303.033 259.327 303.733 257.227 303.733 257.027C303.733 256.427 300.733 256.727 297.233 257.527Z" fill="#D12B28"/>
<path d="M88.3328 262.127C87.3328 264.827 87.6328 277.127 88.8328 282.827C90.4328 290.227 92.8328 294.527 98.2328 299.527C100.833 301.827 102.633 304.027 102.333 304.327C102.133 304.627 97.8328 302.727 92.8328 300.227C76.1328 291.727 47.7328 281.227 47.7328 283.527C47.7328 283.927 49.4328 286.927 51.5328 290.227C59.3328 302.127 70.9328 310.027 84.5328 312.727C91.1328 313.927 99.5328 313.627 112.933 311.627L120.533 310.427L116.433 305.227C112.033 299.927 109.133 294.427 103.633 281.627C100.433 273.927 95.8328 266.927 91.4328 262.827C89.3328 260.827 88.9328 260.727 88.3328 262.127Z" fill="#D12B28"/>
<path d="M326.033 263.927C321.233 269.027 317.233 275.527 314.333 283.127C310.533 292.827 305.133 302.527 301.433 306.327C299.733 308.127 298.633 309.827 298.933 310.127C299.933 311.227 318.033 313.627 324.733 313.627C337.533 313.627 349.233 308.827 359.033 299.727C365.333 293.827 371.533 285.127 370.333 283.927C369.533 283.127 356.233 287.127 345.233 291.427C337.333 294.427 328.933 298.627 318.833 304.427C313.933 307.127 314.133 304.927 319.033 300.627C327.333 293.227 330.733 284.227 330.733 269.027C330.733 265.027 330.333 261.527 329.933 261.227C329.433 260.927 327.733 262.127 326.033 263.927Z" fill="#D12B28"/>
<path d="M133.633 313.227C131.033 314.027 126.333 316.627 123.133 319.127C119.833 321.627 114.433 325.827 110.933 328.427L104.733 333.127L107.933 333.927C109.733 334.427 115.333 334.627 120.233 334.427C131.533 333.827 134.333 332.327 145.533 320.827C150.033 316.227 153.733 312.227 153.733 312.027C153.733 311.027 137.633 311.927 133.633 313.227Z" fill="#D12B28"/>
<path d="M263.733 312.127C263.733 312.327 267.333 316.127 271.633 320.527C282.333 331.227 286.933 333.827 296.233 334.427C303.933 334.927 312.733 334.027 312.733 332.827C312.733 332.427 311.233 331.227 309.533 330.227C307.733 329.127 303.833 326.327 300.933 323.827C289.033 313.827 283.833 311.627 271.533 311.627C267.233 311.627 263.733 311.827 263.733 312.127Z" fill="#D12B28"/>
<path d="M162.233 316.027C156.233 318.727 149.933 325.427 147.333 331.627C146.233 334.127 144.333 338.527 143.033 341.527C141.733 344.527 140.833 347.027 140.933 347.227C141.133 347.327 144.833 346.827 149.233 346.127C158.833 344.527 165.033 341.927 169.633 337.427C172.733 334.427 177.733 325.627 177.733 323.027C177.733 322.427 179.133 320.027 180.733 317.827L183.733 313.627H175.533C168.933 313.627 166.233 314.127 162.233 316.027Z" fill="#D12B28"/>
<path d="M193.733 315.827C189.133 319.027 186.633 322.627 186.033 327.327C185.433 332.027 187.033 335.727 192.133 340.627C195.333 343.827 207.233 351.627 208.833 351.627C210.633 351.627 224.633 341.527 228.033 337.827C231.233 334.227 231.733 332.927 231.733 328.727C231.733 322.827 228.733 317.927 223.733 315.427C221.033 314.027 217.633 313.627 208.633 313.627C198.233 313.627 196.633 313.827 193.733 315.827Z" fill="#D12B28"/>
<path d="M235.433 314.227C235.133 314.527 236.233 316.627 237.833 318.927C239.433 321.127 240.733 323.527 240.733 324.327C240.733 326.527 244.733 333.827 247.633 336.927C252.433 342.227 259.233 344.827 274.033 346.927C275.533 347.127 276.733 347.227 276.733 347.027C276.733 346.827 275.633 344.327 274.333 341.427C273.033 338.527 271.133 334.127 270.033 331.627C265.733 320.927 254.533 313.627 242.633 313.627C239.033 313.627 235.833 313.927 235.433 314.227Z" fill="#D12B28"/>
<path d="M190.733 419.227V426.827L193.533 426.227C197.133 425.327 198.733 423.027 198.733 418.827C198.733 413.927 197.133 411.627 193.733 411.627H190.733V419.227Z" fill="#D12B28"/>
<path d="M239.133 412.927C238.833 413.727 238.733 417.027 238.933 420.227C239.233 425.727 239.433 426.127 241.733 426.127C244.133 426.127 244.233 425.927 244.233 419.127C244.233 412.627 244.033 412.127 241.933 411.827C240.733 411.627 239.533 412.127 239.133 412.927Z" fill="#D12B28"/>
<path d="M259.333 411.827C257.433 418.127 258.033 425.427 260.533 426.327C264.033 427.727 266.033 419.227 263.733 413.227C262.733 410.527 259.933 409.727 259.333 411.827Z" fill="#D12B28"/>
</svg>
